<?xml version="1.0" encoding="UTF-8"?>
<svg version="1.1" xmlns="http://www.w3.org/2000/svg" width="500" height="500">
<path d="M0 0 C1.72265625 1.60546875 1.72265625 1.60546875 3 3 C3.33 1.35 3.66 -0.3 4 -2 C9.94 -2 15.88 -2 22 -2 C22 16.48 22 34.96 22 54 C16.06 54 10.12 54 4 54 C3.67 52.35 3.34 50.7 3 49 C2.278125 49.61875 1.55625 50.2375 0.8125 50.875 C-5.39327348 55.56380663 -11.44093804 55.76771723 -19 55 C-25.69635577 53.21279694 -30.13658934 48.57478886 -34 43 C-38.47773288 35.12706307 -38.78912275 25.42742731 -36.9375 16.75 C-34.51189411 8.39149322 -30.3100224 3.26125564 -22.83203125 -1.08984375 C-15.305515 -4.82902986 -7.31693399 -3.4659161 0 0 Z M-18 18 C-20.10526688 22.21053375 -19.51945575 27.42640105 -19 32 C-17.28526379 36.04462443 -14.58316384 37.73001674 -10.625 39.5625 C-6.1277326 40.10527365 -3.92249996 39.18754805 0 37 C2.5242483 34.98060136 2.94833532 34.15499404 4 31 C4.53358516 25.91782005 4.56704491 22.09498327 2.1875 17.5 C-0.01516812 14.982665 -1.68036706 13.23879072 -5.05078125 12.62890625 C-11.1807652 12.44892399 -13.76009606 13.54810087 -18 18 Z " fill="#F8F9FA" transform="translate(189,186)"/>
<path d="M0 0 C5.72340488 4.61666913 8.51534479 9.64369063 10.80859375 16.5234375 C10.80859375 20.8134375 10.80859375 25.1034375 10.80859375 29.5234375 C-8.00140625 30.0184375 -8.00140625 30.0184375 -27.19140625 30.5234375 C-24.93885041 36.60430719 -24.93885041 36.60430719 -20.87890625 38.0234375 C-16.86050728 38.56830516 -14.81264092 38.29194746 -11.19140625 36.5234375 C-10.53140625 35.5334375 -9.87140625 34.5434375 -9.19140625 33.5234375 C-7.22021484 33.18286133 -7.22021484 33.18286133 -4.83984375 33.23046875 C-3.56367187 33.2449707 -3.56367187 33.2449707 -2.26171875 33.25976562 C-1.37226562 33.28490234 -0.4828125 33.31003906 0.43359375 33.3359375 C1.779375 33.35624023 1.779375 33.35624023 3.15234375 33.37695312 C5.37169164 33.41236825 7.58984563 33.46175289 9.80859375 33.5234375 C8.0064612 40.77570878 5.07537993 45.80394741 -1.32421875 49.8828125 C-9.52723201 54.05999268 -18.03360849 54.90105802 -27.08984375 52.875 C-34.66949429 50.14632581 -39.92090503 45.52278276 -43.56640625 38.3359375 C-46.7942586 30.16891453 -47.29716636 20.79001292 -44.19140625 12.5234375 C-40.74498988 5.24170953 -35.59280291 -0.40108731 -28.00390625 -3.3515625 C-18.61212189 -6.03950078 -8.21295054 -5.53385972 0 0 Z M-25.19140625 12.5234375 C-27.46875635 15.33853743 -27.46875635 15.33853743 -27.19140625 18.5234375 C-20.59140625 18.5234375 -13.99140625 18.5234375 -7.19140625 18.5234375 C-8.47151351 12.39339637 -8.47151351 12.39339637 -12.69140625 10.6484375 C-17.98125807 8.94812799 -20.19483082 10.11437435 -25.19140625 12.5234375 Z " fill="#F8F9FA" transform="translate(93.19140625,187.4765625)"/>
<path d="M0 0 C0 6.27 0 12.54 0 19 C-2.99479167 19.390625 -5.98958333 19.78125 -8.984375 20.171875 C-12.59112969 21.16233095 -13.73196029 22.04460296 -16 25 C-16.64273954 28.47724894 -16.64273954 28.47724894 -16.609375 32.390625 C-16.62591125 33.09523865 -16.64244751 33.79985229 -16.65948486 34.52581787 C-16.70791139 36.76730102 -16.72932187 39.00810613 -16.75 41.25 C-16.77816448 42.77347151 -16.80809259 44.29691152 -16.83984375 45.8203125 C-16.91697946 49.54718508 -16.95753903 53.2719271 -17 57 C-22.94 57 -28.88 57 -35 57 C-35 38.52 -35 20.04 -35 1 C-29.06 1 -23.12 1 -17 1 C-16.67 2.98 -16.34 4.96 -16 7 C-14.700625 5.824375 -14.700625 5.824375 -13.375 4.625 C-9.17680582 1.12980532 -5.47592276 0 0 0 Z " fill="#F8F9FA" transform="translate(148,183)"/>
<path d="M0 0 C0.95648438 -0.02578125 1.91296875 -0.0515625 2.8984375 -0.078125 C6.00392147 0.29560086 7.33036066 1.18373709 9.625 3.25 C9.955 2.26 10.285 1.27 10.625 0.25 C14.915 0.25 19.205 0.25 23.625 0.25 C23.625 12.79 23.625 25.33 23.625 38.25 C19.335 38.25 15.045 38.25 10.625 38.25 C10.295 37.59 9.965 36.93 9.625 36.25 C8.779375 36.745 7.93375 37.24 7.0625 37.75 C2.58837939 39.70234354 -0.70237231 40.06096909 -5.421875 38.62890625 C-9.97528731 36.70312097 -13.11772137 34.20486349 -15.52734375 29.859375 C-17.56294619 23.59309652 -17.58239245 16.16760316 -15.640625 9.8671875 C-12.19997812 3.35252004 -7.12870713 0.11467089 0 0 Z M-2.375 12.25 C-4.98779201 15.60930401 -4.87945037 19.1423327 -4.375 23.25 C-1.90006641 26.67123173 -0.49236219 28.04477021 3.6875 28.8125 C6.65298721 28.42109395 6.65298721 28.42109395 9 26.8125 C11.40166952 23.02525191 11.28317259 19.61641327 10.625 15.25 C9.19182817 12.23279614 8.36384613 11.52220647 5.25 10.375 C2.09538147 10.22478007 0.36881709 10.69269841 -2.375 12.25 Z " fill="#F8F9FA" transform="translate(263.375,265.75)"/>
<path d="M0 0 C5.03677012 2.96772347 7.62732884 6.84589399 9.5 12.3125 C10.19069755 18.47495732 10.22874673 24.14036744 6.5 29.3125 C1.62981498 34.30293651 -2.71869187 37.32184581 -9.8125 37.625 C-15.35160509 37.45937892 -20.12852282 36.49322793 -24.296875 32.66015625 C-29.47297218 26.8308849 -29.8009061 22.17430045 -29.70703125 14.4765625 C-29.32708911 8.66989963 -27.18092099 5.76548064 -23 2 C-16.78246763 -3.19491191 -7.25180236 -3.38690581 0 0 Z M-16.5 11.3125 C-18.10601263 14.52452526 -17.97296969 17.82851198 -17.5 21.3125 C-16.06348718 24.40124323 -16.06348718 24.40124323 -13.5 26.3125 C-10.17665355 26.86639107 -8.26900826 26.64504411 -5.1875 25.3125 C-2.6559402 22.31213284 -2.29930381 19.11829434 -2.5 15.3125 C-4.07430764 11.69159244 -5.18882926 10.51994716 -8.5 8.3125 C-12.10777515 8.3125 -13.56295544 9.3029432 -16.5 11.3125 Z " fill="#F8F9FA" transform="translate(368.5,267.6875)"/>
<path d="M0 0 C5.03677012 2.96772347 7.62732884 6.84589399 9.5 12.3125 C10.19069755 18.47495732 10.22874673 24.14036744 6.5 29.3125 C1.62981498 34.30293651 -2.71869187 37.32184581 -9.8125 37.625 C-15.35160509 37.45937892 -20.12852282 36.49322793 -24.296875 32.66015625 C-29.47297218 26.8308849 -29.8009061 22.17430045 -29.70703125 14.4765625 C-29.32708911 8.66989963 -27.18092099 5.76548064 -23 2 C-16.78246763 -3.19491191 -7.25180236 -3.38690581 0 0 Z M-16.5 11.3125 C-18.10601263 14.52452526 -17.97296969 17.82851198 -17.5 21.3125 C-16.06348718 24.40124323 -16.06348718 24.40124323 -13.5 26.3125 C-10.17665355 26.86639107 -8.26900826 26.64504411 -5.1875 25.3125 C-2.6559402 22.31213284 -2.29930381 19.11829434 -2.5 15.3125 C-4.07430764 11.69159244 -5.18882926 10.51994716 -8.5 8.3125 C-12.10777515 8.3125 -13.56295544 9.3029432 -16.5 11.3125 Z " fill="#F8F9FA" transform="translate(192.5,267.6875)"/>
<path d="M0 0 C3.96 0 7.92 0 12 0 C12.33 0.99 12.66 1.98 13 3 C13.61875 2.505 14.2375 2.01 14.875 1.5 C19.29272812 -0.6205095 23.17966573 -0.69524052 28 0 C32.48035444 2.19944673 34.86312614 4.50131818 37 9 C38.05550192 12.32571553 38.11540209 15.38119103 38.09765625 18.859375 C38.09443359 19.97441406 38.09121094 21.08945312 38.08789062 22.23828125 C38.07532227 23.97658203 38.07532227 23.97658203 38.0625 25.75 C38.05798828 26.92433594 38.05347656 28.09867187 38.04882812 29.30859375 C38.03705106 32.20575095 38.01911588 35.10288193 38 38 C34.04 38 30.08 38 26 38 C25.95101563 36.45828125 25.90203125 34.9165625 25.8515625 33.328125 C25.77652326 31.30206544 25.70097592 29.27602465 25.625 27.25 C25.5940625 26.23421875 25.563125 25.2184375 25.53125 24.171875 C25.49257813 23.1921875 25.45390625 22.2125 25.4140625 21.203125 C25.36693115 19.85202637 25.36693115 19.85202637 25.31884766 18.47363281 C24.9815719 15.85703408 24.45983155 14.19314515 23 12 C20.13362718 10.91107661 20.13362718 10.91107661 17 11 C14.74616585 12.06568576 14.74616585 12.06568576 13 14 C12.35836328 16.59905411 12.35836328 16.59905411 12.390625 19.54296875 C12.35839844 20.61611328 12.32617188 21.68925781 12.29296875 22.79492188 C12.27169922 24.47424805 12.27169922 24.47424805 12.25 26.1875 C12.22035156 27.31865234 12.19070313 28.44980469 12.16015625 29.61523438 C12.0894085 32.40977066 12.04244661 35.2048906 12 38 C8.04 38 4.08 38 0 38 C0 25.46 0 12.92 0 0 Z " fill="#F8F9FA" transform="translate(383,266)"/>
<path d="M0 0 C3.96 0 7.92 0 12 0 C12.33 0.99 12.66 1.98 13 3 C13.61875 2.505 14.2375 2.01 14.875 1.5 C19.29272812 -0.6205095 23.17966573 -0.69524052 28 0 C32.48035444 2.19944673 34.86312614 4.50131818 37 9 C38.05550192 12.32571553 38.11540209 15.38119103 38.09765625 18.859375 C38.09443359 19.97441406 38.09121094 21.08945312 38.08789062 22.23828125 C38.07532227 23.97658203 38.07532227 23.97658203 38.0625 25.75 C38.05798828 26.92433594 38.05347656 28.09867187 38.04882812 29.30859375 C38.03705106 32.20575095 38.01911588 35.10288193 38 38 C34.04 38 30.08 38 26 38 C25.95101562 36.45828125 25.90203125 34.9165625 25.8515625 33.328125 C25.77652326 31.30206544 25.70097592 29.27602465 25.625 27.25 C25.5940625 26.23421875 25.563125 25.2184375 25.53125 24.171875 C25.49257812 23.1921875 25.45390625 22.2125 25.4140625 21.203125 C25.36693115 19.85202637 25.36693115 19.85202637 25.31884766 18.47363281 C24.9815719 15.85703408 24.45983155 14.19314515 23 12 C20.13362718 10.91107661 20.13362718 10.91107661 17 11 C14.74616585 12.06568576 14.74616585 12.06568576 13 14 C12.35836328 16.59905411 12.35836328 16.59905411 12.390625 19.54296875 C12.35839844 20.61611328 12.32617188 21.68925781 12.29296875 22.79492188 C12.27169922 24.47424805 12.27169922 24.47424805 12.25 26.1875 C12.22035156 27.31865234 12.19070312 28.44980469 12.16015625 29.61523438 C12.0894085 32.40977066 12.04244661 35.2048906 12 38 C8.04 38 4.08 38 0 38 C0 25.46 0 12.92 0 0 Z " fill="#F8F9FA" transform="translate(120,266)"/>
<path d="M0 0 C3.96 0 7.92 0 12 0 C12.33 0.99 12.66 1.98 13 3 C13.61875 2.505 14.2375 2.01 14.875 1.5 C19.29272812 -0.6205095 23.17966573 -0.69524052 28 0 C32.48035444 2.19944673 34.86312614 4.50131818 37 9 C38.05550192 12.32571553 38.11540209 15.38119103 38.09765625 18.859375 C38.09443359 19.97441406 38.09121094 21.08945312 38.08789062 22.23828125 C38.07532227 23.97658203 38.07532227 23.97658203 38.0625 25.75 C38.05798828 26.92433594 38.05347656 28.09867187 38.04882812 29.30859375 C38.03705106 32.20575095 38.01911588 35.10288193 38 38 C34.04 38 30.08 38 26 38 C25.95101562 36.45828125 25.90203125 34.9165625 25.8515625 33.328125 C25.77652326 31.30206544 25.70097592 29.27602465 25.625 27.25 C25.5940625 26.23421875 25.563125 25.2184375 25.53125 24.171875 C25.49257812 23.1921875 25.45390625 22.2125 25.4140625 21.203125 C25.36693115 19.85202637 25.36693115 19.85202637 25.31884766 18.47363281 C24.9815719 15.85703408 24.45983155 14.19314515 23 12 C20.13362718 10.91107661 20.13362718 10.91107661 17 11 C14.74616585 12.06568576 14.74616585 12.06568576 13 14 C12.35836328 16.59905411 12.35836328 16.59905411 12.390625 19.54296875 C12.35839844 20.61611328 12.32617188 21.68925781 12.29296875 22.79492188 C12.27169922 24.47424805 12.27169922 24.47424805 12.25 26.1875 C12.22035156 27.31865234 12.19070312 28.44980469 12.16015625 29.61523438 C12.0894085 32.40977066 12.04244661 35.2048906 12 38 C8.04 38 4.08 38 0 38 C0 25.46 0 12.92 0 0 Z " fill="#F8F9FA" transform="translate(75,266)"/>
<path d="M0 0 C2.90953149 1.86621464 5.20548063 4.26108149 6.921875 7.2421875 C7.28457475 8.90271085 7.62146691 10.56927272 7.921875 12.2421875 C5.96421219 12.32300844 4.00560772 12.38129528 2.046875 12.4296875 C0.41105469 12.48189453 0.41105469 12.48189453 -1.2578125 12.53515625 C-2.18851562 12.43847656 -3.11921875 12.34179688 -4.078125 12.2421875 C-4.738125 11.2521875 -5.398125 10.2621875 -6.078125 9.2421875 C-8.66192677 8.99187773 -8.66192677 8.99187773 -11.078125 9.2421875 C-11.078125 10.2321875 -11.078125 11.2221875 -11.078125 12.2421875 C-10.19769531 12.47292969 -9.31726563 12.70367187 -8.41015625 12.94140625 C3.20971473 16.2042557 3.20971473 16.2042557 6.921875 21.2421875 C8.35491564 24.10826879 8.22831655 26.05519533 7.921875 29.2421875 C6.01023433 33.14193446 4.48809059 34.90911951 0.734375 37.1171875 C-5.9590923 39.092309 -11.88916302 38.97363743 -18.3515625 36.21875 C-21.09671629 34.66606121 -22.50345168 32.95062561 -24.078125 30.2421875 C-24.828125 26.9296875 -24.828125 26.9296875 -25.078125 24.2421875 C-21.118125 24.2421875 -17.158125 24.2421875 -13.078125 24.2421875 C-12.748125 25.2321875 -12.418125 26.2221875 -12.078125 27.2421875 C-8.10058372 27.97553179 -8.10058372 27.97553179 -4.078125 28.2421875 C-4.078125 26.9221875 -4.078125 25.6021875 -4.078125 24.2421875 C-4.73039062 24.13261719 -5.38265625 24.02304687 -6.0546875 23.91015625 C-12.44593774 22.75068165 -17.60637643 21.58384404 -22.453125 16.9921875 C-24.59096904 13.37429759 -24.7324688 11.38636492 -24.078125 7.2421875 C-19.09726598 -1.38080163 -9.13222269 -3.33017143 0 0 Z " fill="#F8F9FA" transform="translate(451.078125,266.7578125)"/>
<path d="M0 0 C4.29 0 8.58 0 13 0 C20 17.85 20 17.85 20 24 C20.66 24 21.32 24 22 24 C22.14695313 23.14341797 22.14695313 23.14341797 22.296875 22.26953125 C25.81676413 3.18323587 25.81676413 3.18323587 29 0 C31.18639453 -0.07258946 33.37500389 -0.08373783 35.5625 -0.0625 C37.35880859 -0.04896484 37.35880859 -0.04896484 39.19140625 -0.03515625 C40.11824219 -0.02355469 41.04507813 -0.01195312 42 0 C37.79564465 12.71492334 33.57682488 25.41373159 29 38 C23.72 38 18.44 38 13 38 C11.146619 32.74963856 9.2952588 27.49857078 7.44580078 22.24682617 C6.81582805 20.45886795 6.18529514 18.671107 5.55419922 16.88354492 C4.64925534 14.32001081 3.74630232 11.75578318 2.84375 9.19140625 C2.55939087 8.3872377 2.27503174 7.58306915 1.98205566 6.75453186 C0 1.11387171 0 1.11387171 0 0 Z " fill="#F8F9FA" transform="translate(203,266)"/>
<path d="M0 0 C4.08428532 2.29138055 6.31378585 4.97530006 7.75 9.4375 C8.38597117 13.28256707 8.14889144 16.48459266 6.625 20.125 C2.9511418 24.65609178 0.14983221 27.52973043 -5.6875 28.375 C-11.4237962 28.69314752 -15.6396804 27.83311032 -20.0625 24 C-23.99942672 19.38817156 -24.70938347 16.84563589 -24.5546875 10.94140625 C-24.0903874 7.12581181 -22.88955655 5.20903438 -20.25 2.4375 C-13.74270973 -2.16943116 -7.35538829 -3.14647166 0 0 Z " fill="#21D2ED" transform="translate(248.25,198.5625)"/>
<path d="M0 0 C3.96 0 7.92 0 12 0 C12 2.97 12 5.94 12 9 C14.31 9 16.62 9 19 9 C19 12.63 19 16.26 19 20 C16.69 20 14.38 20 12 20 C12.495 27.92 12.495 27.92 13 36 C14.98 36.33 16.96 36.66 19 37 C19 40.3 19 43.6 19 47 C17.10489301 47.08160748 15.20875496 47.13946459 13.3125 47.1875 C11.72888672 47.23970703 11.72888672 47.23970703 10.11328125 47.29296875 C6.55898906 46.9584996 4.80290251 46.18439863 2 44 C0.1296978 40.99544479 -0.2403205 38.74499873 -0.1953125 35.234375 C-0.18564453 33.90019531 -0.18564453 33.90019531 -0.17578125 32.5390625 C-0.15902344 31.61867188 -0.14226562 30.69828125 -0.125 29.75 C-0.11597656 28.81414062 -0.10695313 27.87828125 -0.09765625 26.9140625 C-0.07413636 24.60911343 -0.04126853 22.3046884 0 20 C-1.65 20 -3.3 20 -5 20 C-5 16.37 -5 12.74 -5 9 C-3.35 9 -1.7 9 0 9 C0 6.03 0 3.06 0 0 Z " fill="#F8F9FA" transform="translate(296,257)"/>
<path d="M0 0 C3.96 0 7.92 0 12 0 C12 12.54 12 25.08 12 38 C8.04 38 4.08 38 0 38 C0 25.46 0 12.92 0 0 Z " fill="#F8F9FA" transform="translate(321,266)"/>
<path d="M0 0 C3.96 0 7.92 0 12 0 C12 12.54 12 25.08 12 38 C8.04 38 4.08 38 0 38 C0 25.46 0 12.92 0 0 Z " fill="#F8F9FA" transform="translate(55,266)"/>
<path d="M0 0 C2.4375 1.5625 2.4375 1.5625 4 4 C3.9375 7.625 3.9375 7.625 3 11 C-0.48868651 13.32579101 -1.89718519 13.41865457 -6 13 C-8.375 11.9375 -8.375 11.9375 -10 10 C-10.5 6.5 -10.5 6.5 -10 3 C-7.15718952 -0.3895048 -4.25588004 -0.62064917 0 0 Z " fill="#F8F9FA" transform="translate(330,250)"/>
<path d="M0 0 C2.4375 1.5625 2.4375 1.5625 4 4 C3.9375 7.625 3.9375 7.625 3 11 C-0.48868651 13.32579101 -1.89718519 13.41865457 -6 13 C-8.375 11.9375 -8.375 11.9375 -10 10 C-10.5 6.5 -10.5 6.5 -10 3 C-7.15718952 -0.3895048 -4.25588004 -0.62064917 0 0 Z " fill="#F8F9FA" transform="translate(64,250)"/>
</svg>
